<svg width="119" height="89" viewBox="0 0 119 89" fill="none" xmlns="http://www.w3.org/2000/svg">
<path d="M4.5 88.6101V3.65892V2.65358C10.5 1.61011 12.5721 6.09884 16 9.62928C19.5 13.6283 24.5 22.6261 37.948 22.2577C40 21.6264 44.5362 20.247 52.6448 18.739C65.5 16.6101 73.9593 39.5887 77 43.6101C80.0407 47.6314 84.4273 48.6198 85.9545 48.6198C87.4818 48.6198 92.0729 47.62 94.1 47.62C105.452 47.2179 113.797 56.7743 116.5 61.4659V88.6101H4.5Z" fill="url(#paint0_linear_419_35737)"/>
<path d="M116.82 64.3776L113.232 62.4299L115.18 58.842L118.768 60.7897L116.82 64.3776ZM94.5 47.1098V46.6098H94.5143L94.5285 46.6106L94.5 47.1098ZM73 37.6098L73.424 37.3448L73.4283 37.3517L73.4324 37.3587L73 37.6098ZM50 19.1098L50.163 19.5825L50.0838 19.6098H50V19.1098ZM19.5 13.1098L19.8954 12.8037L19.5 13.1098ZM4 3.10976L3.75193 2.67564L3.7808 2.65914L3.8116 2.64661L4 3.10976ZM0.493607 1.6775L4.43224 0.603345L5.50639 4.54198L1.56776 5.61614L0.493607 1.6775ZM115.521 61.7518C114.238 57.4232 108.231 48.3952 94.4715 47.609L94.5285 46.6106C108.769 47.4244 115.095 56.7964 116.479 61.4678L115.521 61.7518ZM94.5 47.6098C93.1908 47.6098 91.7958 47.9666 90.1859 48.295C88.6049 48.6175 86.8669 48.8977 85.0016 48.6686C81.2205 48.2042 77.1075 45.6796 72.5676 37.8609L73.4324 37.3587C77.8925 45.04 81.7795 47.2654 85.1234 47.676C86.8206 47.8844 88.4263 47.6333 89.986 47.3152C91.5167 47.003 93.0592 46.6098 94.5 46.6098V47.6098ZM72.576 37.8748C72.2458 37.3465 71.8667 36.5781 71.4373 35.6764C71.0027 34.7641 70.5105 33.702 69.9422 32.5497C68.8066 30.2474 67.3859 27.6249 65.6025 25.2881C63.8177 22.9494 61.691 20.9253 59.1543 19.7846C56.6331 18.6508 53.6712 18.3728 50.163 19.5825L49.837 18.6371C53.5788 17.3468 56.8044 17.6313 59.5644 18.8725C62.309 20.1068 64.5573 22.2702 66.3975 24.6815C68.2391 27.0947 69.6934 29.7847 70.839 32.1074C71.4113 33.2676 71.9113 34.3462 72.3401 35.2464C72.7739 36.1571 73.1292 36.8731 73.424 37.3448L72.576 37.8748ZM50 19.6098C49.6458 19.6098 49.0954 19.7352 48.3198 19.9668C47.5493 20.1969 46.6584 20.4985 45.5937 20.8294C43.4959 21.4816 40.8756 22.1978 37.9758 22.4208C32.1431 22.8695 25.2207 21.3158 19.1046 13.4159L19.8954 12.8037C25.7793 20.4038 32.3569 21.8501 37.8992 21.4238C40.6869 21.2093 43.2228 20.5193 45.2969 19.8745C46.3181 19.5571 47.2671 19.2375 48.0337 19.0086C48.7952 18.7812 49.4792 18.6098 50 18.6098V19.6098ZM19.1046 13.4159C14.3417 7.26377 10.5392 4.83886 7.98267 3.93094C6.70541 3.47733 5.73224 3.39966 5.09407 3.42802C4.77424 3.44223 4.53634 3.48318 4.38431 3.51814C4.30824 3.53563 4.25355 3.55165 4.22073 3.56213C4.20432 3.56737 4.19337 3.57123 4.18797 3.57319C4.18526 3.57418 4.18394 3.57469 4.18401 3.57466C4.18404 3.57465 4.18443 3.5745 4.18516 3.57421C4.18552 3.57407 4.18597 3.57389 4.18652 3.57367C4.18678 3.57356 4.18726 3.57337 4.18739 3.57332C4.18788 3.57312 4.1884 3.57291 4 3.10976C3.8116 2.64661 3.81216 2.64638 3.81274 2.64615C3.81297 2.64606 3.81358 2.64581 3.81403 2.64563C3.81493 2.64527 3.81592 2.64488 3.817 2.64445C3.81917 2.64359 3.82171 2.64259 3.82462 2.64147C3.83043 2.63923 3.83772 2.63649 3.84647 2.63331C3.86397 2.62695 3.88733 2.61885 3.91647 2.60954C3.97478 2.59092 4.05621 2.56748 4.16022 2.54357C4.36835 2.49571 4.66639 2.44604 5.04967 2.42901C5.81776 2.39487 6.91959 2.4922 8.31733 2.9886C11.1108 3.98069 15.0583 6.55579 19.8954 12.8037L19.1046 13.4159ZM4.24807 3.54388C4.15707 3.59588 4.17661 3.61141 4.19829 3.5595C4.22607 3.49297 4.21069 3.43176 4.20127 3.41083C4.19695 3.40122 4.20278 3.41716 4.2382 3.44811C4.27118 3.47693 4.3068 3.49852 4.32687 3.50804C4.33841 3.51352 4.33022 3.50812 4.30479 3.50227C4.29279 3.49951 4.25976 3.49255 4.21357 3.49325C4.1773 3.49379 4.06551 3.49928 3.9509 3.58019C3.80344 3.68429 3.74164 3.84699 3.74558 3.98928C3.74865 4.10012 3.78938 4.17584 3.80152 4.19751C3.82892 4.24638 3.85265 4.2634 3.82917 4.2411C3.74384 4.16009 3.45271 3.94431 2.75193 3.54386L3.24807 2.67562C3.60477 2.87945 3.87515 3.04606 4.07671 3.18066C4.27383 3.3123 4.41991 3.42305 4.51771 3.5159C4.56115 3.55715 4.62609 3.62338 4.67382 3.70852C4.69613 3.74832 4.7418 3.83893 4.74519 3.9616C4.74706 4.02883 4.7362 4.11133 4.69642 4.19592C4.65581 4.2823 4.59497 4.34959 4.52762 4.39713C4.40471 4.4839 4.2806 4.49235 4.22861 4.49313C4.1667 4.49407 4.11454 4.48462 4.08061 4.47682C4.01131 4.46088 3.94805 4.43516 3.89813 4.41147C3.79528 4.36266 3.68246 4.2905 3.58016 4.2011C3.48029 4.11382 3.36399 3.98705 3.28935 3.82119C3.20962 3.64401 3.17575 3.41302 3.27554 3.17409C3.36922 2.94978 3.55125 2.79031 3.75193 2.67564L4.24807 3.54388Z" fill="#FA6262"/>
<defs>
<linearGradient id="paint0_linear_419_35737" x1="60.5" y1="2.63097" x2="60.5" y2="88.6101" gradientUnits="userSpaceOnUse">
<stop stop-color="#FA6262"/>
<stop offset="1" stop-color="white" stop-opacity="0"/>
</linearGradient>
</defs>
</svg>
