<svg width="14" height="14" viewBox="0 0 14 14" fill="none" xmlns="http://www.w3.org/2000/svg">
<path d="M13.5325 6.71962L7.53247 0.719615C7.46279 0.649695 7.38 0.594217 7.28883 0.556363C7.19767 0.518509 7.09993 0.499023 7.00122 0.499023C6.90251 0.499023 6.80477 0.518509 6.7136 0.556363C6.62244 0.594217 6.53965 0.649695 6.46997 0.719615L0.469968 6.71962C0.364883 6.82458 0.293331 6.95839 0.264383 7.10407C0.235435 7.24975 0.250394 7.40074 0.307363 7.53791C0.364333 7.67508 0.460747 7.79225 0.584385 7.87455C0.708022 7.95686 0.853314 8.00061 1.00184 8.00024H3.25184V8.25024C3.25184 8.44915 3.33086 8.63992 3.47151 8.78057C3.61216 8.92122 3.80293 9.00024 4.00184 9.00024H10.0018C10.2008 9.00024 10.3915 8.92122 10.5322 8.78057C10.6728 8.63992 10.7518 8.44915 10.7518 8.25024V8.00024H13.0018C13.1503 8.00036 13.2954 7.95643 13.4188 7.87403C13.5423 7.79163 13.6385 7.67445 13.6953 7.53733C13.7521 7.40022 13.767 7.24932 13.738 7.10376C13.709 6.9582 13.6375 6.82451 13.5325 6.71962ZM10.0018 6.50024C9.80293 6.50024 9.61217 6.57926 9.47151 6.71991C9.33086 6.86056 9.25184 7.05133 9.25184 7.25024V7.50024H4.75184V7.25024C4.75184 7.05133 4.67282 6.86056 4.53217 6.71991C4.39152 6.57926 4.20075 6.50024 4.00184 6.50024H2.81434L7.00184 2.31274L11.1893 6.50024H10.0018ZM10.7518 13.2502C10.7518 13.4492 10.6728 13.6399 10.5322 13.7806C10.3915 13.9212 10.2008 14.0002 10.0018 14.0002H4.00184C3.80293 14.0002 3.61216 13.9212 3.47151 13.7806C3.33086 13.6399 3.25184 13.4492 3.25184 13.2502C3.25184 13.0513 3.33086 12.8606 3.47151 12.7199C3.61216 12.5793 3.80293 12.5002 4.00184 12.5002H10.0018C10.2008 12.5002 10.3915 12.5793 10.5322 12.7199C10.6728 12.8606 10.7518 13.0513 10.7518 13.2502ZM10.7518 10.7502C10.7518 10.9492 10.6728 11.1399 10.5322 11.2806C10.3915 11.4212 10.2008 11.5002 10.0018 11.5002H4.00184C3.80293 11.5002 3.61216 11.4212 3.47151 11.2806C3.33086 11.1399 3.25184 10.9492 3.25184 10.7502C3.25184 10.5513 3.33086 10.3606 3.47151 10.2199C3.61216 10.0793 3.80293 10.0002 4.00184 10.0002H10.0018C10.2008 10.0002 10.3915 10.0793 10.5322 10.2199C10.6728 10.3606 10.7518 10.5513 10.7518 10.7502Z" fill="#24BC73"/>
</svg>
